<?xml version="1.0" standalone="no"?>
<!DOCTYPE svg PUBLIC "-//W3C//DTD SVG 20010904//EN"
 "http://www.w3.org/TR/2001/REC-SVG-20010904/DTD/svg10.dtd">
<svg version="1.0" xmlns="http://www.w3.org/2000/svg"
 width="1037.000000pt" height="1037.000000pt" viewBox="0 0 1037.000000 1037.000000"
 preserveAspectRatio="xMidYMid meet">
<metadata>
Created by potrace 1.11, written by Peter Selinger 2001-2013
</metadata>
<g transform="translate(0.000000,1037.000000) scale(0.100000,-0.100000)"
fill="#000000" stroke="none">
<path d="M4457 9746 c-63 -19 -85 -21 -107 -13 -21 8 -47 6 -107 -7 -50 -10
-113 -16 -164 -15 -84 3 -84 3 -159 -43 -79 -48 -158 -88 -173 -88 -5 0 -28
-16 -51 -35 -24 -19 -57 -45 -74 -58 -120 -87 -169 -123 -181 -135 -8 -7 -44
-37 -80 -67 -75 -60 -102 -88 -154 -161 -20 -28 -50 -57 -67 -64 -16 -7 -30
-17 -30 -22 0 -6 -21 -53 -46 -106 -27 -56 -51 -126 -60 -171 -7 -42 -18 -95
-24 -119 -13 -53 -13 -138 -1 -161 7 -13 4 -25 -15 -46 -13 -15 -29 -46 -35
-68 -13 -50 -12 -414 2 -575 11 -127 10 -188 -10 -437 -6 -82 -14 -266 -19
-408 -8 -278 -7 -276 -62 -277 -30 -1 -116 -45 -160 -83 -58 -50 -74 -167 -44
-327 9 -47 20 -105 24 -130 15 -81 60 -253 96 -365 64 -204 113 -267 188 -246
33 8 36 7 41 -12 6 -31 14 -135 25 -322 5 -88 11 -182 15 -210 3 -27 10 -95
16 -150 5 -55 20 -134 33 -175 22 -70 45 -151 82 -295 56 -214 118 -388 163
-463 16 -26 35 -67 41 -92 7 -25 18 -58 25 -75 7 -16 18 -48 25 -70 7 -22 15
-44 18 -50 4 -5 16 -37 27 -70 22 -61 51 -107 116 -186 20 -24 42 -60 48 -80
6 -19 36 -73 65 -119 l54 -83 7 -105 c13 -179 0 -338 -39 -517 -36 -162 -90
-298 -133 -338 -44 -39 -127 -50 -413 -57 -269 -6 -279 -6 -442 -43 -146 -32
-184 -36 -290 -36 -83 1 -146 -4 -193 -15 -106 -26 -112 -27 -226 -41 -59 -7
-122 -20 -141 -29 -19 -9 -57 -21 -84 -25 -62 -11 -169 -52 -220 -83 -21 -13
-62 -34 -91 -45 -28 -12 -79 -40 -113 -63 -33 -23 -91 -57 -128 -77 -37 -19
-92 -49 -122 -66 -30 -16 -77 -41 -105 -55 -27 -14 -75 -42 -106 -63 -30 -20
-105 -59 -166 -87 -117 -52 -181 -92 -225 -138 -73 -78 -97 -105 -140 -159
-60 -72 -61 -90 -5 -115 43 -20 71 -36 142 -81 84 -53 178 -92 349 -144 65
-21 175 -64 243 -96 68 -32 126 -59 128 -59 3 0 28 -11 57 -24 378 -173 506
-220 618 -231 71 -7 238 -44 365 -80 84 -24 195 -40 355 -51 52 -3 127 -15
165 -27 68 -21 88 -21 590 -21 286 0 770 5 1075 12 305 6 740 13 965 16 444 6
522 9 780 30 94 8 276 17 405 20 129 3 336 15 460 25 124 11 320 23 435 26
230 6 284 8 770 30 467 21 506 25 680 75 22 6 58 15 80 20 114 25 234 75 340
142 28 17 100 59 160 93 61 34 166 94 234 134 68 39 128 71 132 71 14 0 77 73
73 84 -3 7 -17 20 -33 29 -30 18 -153 107 -161 118 -3 3 -30 21 -60 41 -31 19
-62 41 -70 49 -8 8 -40 30 -70 49 -30 19 -57 37 -60 40 -3 3 -25 21 -50 40
-25 19 -61 49 -80 67 -61 55 -88 73 -147 99 -77 34 -242 145 -358 240 -128
105 -309 194 -550 269 -82 26 -154 51 -160 55 -22 15 -187 60 -315 84 -210 40
-312 63 -345 77 -21 9 -95 14 -250 16 -121 1 -223 3 -226 3 -12 0 -79 149 -79
175 0 9 -6 28 -14 43 -17 34 -56 178 -68 257 -6 33 -18 88 -29 123 -10 34 -19
80 -19 101 0 21 -11 87 -24 147 -22 104 -23 122 -18 383 5 311 -1 284 103 409
114 137 258 408 339 637 17 50 38 106 47 125 13 27 17 75 20 205 2 119 7 173
15 181 7 6 34 17 61 23 93 22 159 62 248 151 47 47 94 100 105 118 10 17 22
32 26 32 4 0 8 5 8 11 0 6 20 34 44 62 23 29 48 67 55 86 7 22 11 116 11 260
0 235 -13 356 -46 441 -31 82 -151 172 -193 145 -16 -9 -13 16 3 29 7 6 23 38
34 71 12 33 33 89 47 125 14 36 28 85 30 110 12 128 50 360 70 420 21 66 28
578 8 601 -8 9 -23 75 -33 145 -38 247 -61 344 -106 441 -13 28 -24 54 -24 57
0 3 -16 41 -36 83 -20 43 -49 106 -65 140 -31 69 -83 152 -124 198 -14 17 -59
65 -98 108 -40 43 -76 85 -80 93 -4 8 -13 14 -18 14 -6 0 -29 18 -52 39 -63
59 -130 111 -144 111 -7 0 -13 4 -13 8 0 13 -47 32 -76 32 -14 0 -35 5 -47 11
-20 11 -139 102 -163 125 -41 38 -182 143 -226 167 -29 16 -110 49 -179 73
-69 23 -152 55 -185 69 -71 32 -156 61 -206 70 -21 4 -38 10 -38 14 0 13 -164
44 -168 32 -5 -16 -54 -13 -80 4 -17 13 -75 18 -284 25 -261 9 -264 10 -333
39 -69 30 -72 30 -257 31 -119 0 -188 4 -188 10 0 16 -49 11 -133 -14z m681
-83 c-16 -2 -40 -2 -55 0 -16 2 -3 4 27 4 30 0 43 -2 28 -4z m-213 -98 c152
-22 396 -80 462 -110 17 -8 38 -15 46 -15 9 0 19 -5 23 -11 7 -12 -25 -10
-121 7 -67 12 -34 -4 40 -19 42 -9 100 -13 143 -10 76 4 164 -15 179 -41 5 -6
26 -16 48 -21 22 -6 40 -15 40 -22 0 -20 16 -28 25 -13 7 12 13 13 27 3 10 -6
17 -16 16 -22 -2 -6 2 -11 7 -11 6 0 10 -7 10 -15 0 -9 9 -15 23 -14 16 1 18
2 5 6 -10 2 -18 8 -18 13 0 15 36 21 64 10 15 -5 57 -10 93 -10 49 0 77 -6
112 -24 25 -13 66 -34 91 -45 49 -23 78 -46 98 -76 25 -39 52 -107 52 -131 0
-13 5 -24 12 -24 9 0 9 -3 0 -12 -7 -7 -12 -27 -12 -44 0 -18 -4 -35 -8 -38
-9 -5 -68 22 -137 65 -23 13 -50 29 -60 36 -56 34 -280 143 -293 143 -9 0 -23
7 -33 16 -9 8 -32 16 -50 16 -19 0 -38 3 -43 6 -6 3 -37 7 -70 9 -34 1 -95 10
-136 19 -41 8 -106 22 -145 31 -38 8 -84 19 -101 25 -17 6 -40 8 -49 4 -17 -6
-17 -7 1 -21 11 -7 37 -16 57 -20 37 -7 66 -29 31 -24 -11 2 -24 0 -31 -4 -6
-4 -31 -3 -54 2 -41 9 -69 6 -69 -9 0 -9 33 -22 115 -45 121 -33 199 -61 203
-73 8 -26 -48 -15 -247 45 -243 73 -544 113 -860 113 -118 0 -149 -14 -58 -26
49 -7 50 -8 22 -16 -54 -15 -325 -21 -341 -7 -10 8 -14 8 -14 0 0 -12 -48 -15
-74 -5 -29 11 -17 22 26 22 26 1 47 7 54 16 6 9 21 16 34 16 19 0 20 -2 10
-15 -7 -9 -9 -19 -5 -23 4 -4 10 -1 12 6 3 6 12 12 21 12 14 0 15 2 2 10 -8 5
-12 11 -10 13 13 12 292 37 411 38 167 1 234 9 234 28 0 12 -16 14 -72 13 -42
-1 -73 3 -73 8 0 13 -123 13 -136 0 -6 -6 -80 -17 -165 -24 -85 -8 -163 -17
-174 -20 -12 -4 -30 2 -45 13 l-25 20 25 10 c23 9 21 10 -17 10 -23 1 -45 -4
-48 -10 -4 -6 -24 -9 -46 -6 -21 2 -36 0 -33 -5 6 -10 -64 -42 -113 -53 -21
-4 -33 -3 -33 4 0 14 73 51 100 51 12 0 18 5 15 10 -6 9 16 15 39 11 4 -1 14
4 22 10 11 9 18 8 31 -2 13 -11 17 -11 20 -1 3 7 23 12 49 12 25 0 43 4 40 9
-3 5 15 19 41 31 44 20 55 21 232 16 102 -3 211 -10 241 -15 30 -5 59 -6 64
-3 5 3 23 9 40 13 l31 7 -37 1 c-20 1 -45 4 -55 7 -15 5 -15 4 -3 -5 12 -8 6
-11 -27 -11 -24 0 -43 5 -43 10 0 6 -40 10 -97 11 -54 1 -111 5 -128 8 -59 14
82 24 234 17 80 -4 142 -4 138 1 -5 4 -23 8 -40 9 -18 1 -57 2 -88 2 -47 2
-58 5 -62 21 -4 18 -12 19 -102 14 -75 -5 -99 -3 -105 7 -6 10 -12 11 -22 3
-12 -10 -194 -34 -288 -38 -19 -1 -48 -7 -63 -13 -16 -7 -33 -12 -38 -12 -6 0
-39 -10 -74 -22 -35 -13 -67 -19 -72 -15 -11 11 55 67 81 68 53 4 101 15 127
29 50 26 149 41 261 38 64 -2 120 0 124 5 4 4 -46 7 -112 8 -139 1 -128 10 51
40 92 15 144 18 315 13 113 -3 250 -11 305 -19z m1110 -82 c28 -7 77 -20 110
-29 92 -23 193 -63 228 -92 18 -14 34 -27 36 -29 2 -2 2 -6 -1 -9 -8 -7 -94
22 -121 41 -12 8 -34 15 -49 15 -16 0 -28 3 -28 8 0 14 -40 32 -107 46 -37 8
-77 18 -87 22 -13 5 -17 4 -13 -3 7 -11 -37 -4 -76 12 -15 6 -16 10 -5 16 8 6
-3 9 -32 10 l-45 2 45 7 c48 7 67 5 145 -17z m-2270 -3 c-11 -18 -110 -87
-135 -95 -21 -6 -18 -1 14 27 22 18 53 43 70 55 32 23 62 30 51 13z m1945 -40
l25 -8 -25 -1 c-14 0 -32 4 -40 9 -13 9 -13 10 0 9 8 -1 26 -5 40 -9z m526
-81 c19 -11 34 -27 34 -35 0 -8 12 -20 28 -26 15 -7 56 -41 92 -77 53 -53 62
-66 46 -69 -10 -2 -21 0 -25 6 -3 5 -21 17 -40 27 -19 9 -58 40 -87 69 -69 66
-81 76 -87 70 -2 -2 -10 3 -18 12 -11 14 -11 18 -1 21 6 3 10 9 6 14 -9 16 17
10 52 -12z m-2451 -48 c0 -17 -72 -44 -80 -30 -9 13 3 29 29 39 28 12 51 8 51
-9z m2756 -50 c13 -11 20 -23 16 -27 -4 -4 -20 4 -35 19 -30 31 -16 37 19 8z
m-2854 -5 c0 -8 -9 -14 -19 -13 -21 1 -24 13 -5 20 20 9 24 8 24 -7z m373 -6
c0 -5 -4 -10 -10 -10 -5 0 -10 5 -10 10 0 6 5 10 10 10 6 0 10 -4 10 -10z
m-540 -19 c0 -12 -20 -25 -27 -18 -7 7 6 27 18 27 5 0 9 -4 9 -9z m-120 -46
c-7 -9 -15 -13 -18 -10 -3 2 1 11 8 20 7 9 15 13 18 10 3 -2 -1 -11 -8 -20z
m520 -25 c0 -5 -2 -10 -4 -10 -3 0 -8 5 -11 10 -3 6 -1 10 4 10 6 0 11 -4 11
-10z m1540 -10 c0 -5 -9 -10 -19 -10 -11 0 -23 5 -26 10 -4 6 5 10 19 10 14 0
26 -4 26 -10z m1269 -24 c18 -19 31 -40 29 -47 -4 -12 -78 58 -78 74 0 15 17
6 49 -27z m-1239 14 c0 -5 6 -7 13 -4 7 2 46 -3 87 -12 41 -8 98 -17 125 -19
28 -2 63 -8 78 -14 16 -6 37 -11 49 -11 11 0 49 -13 85 -30 35 -16 69 -30 74
-30 5 0 9 -7 9 -15 0 -8 6 -12 15 -9 15 6 174 -73 221 -111 25 -20 27 -25 14
-40 -10 -12 -23 -15 -49 -11 -19 3 -37 9 -40 13 -13 18 -94 66 -225 133 -118
60 -141 68 -148 55 -9 -15 -49 -12 -73 5 -5 4 -21 11 -35 15 -14 4 -46 18 -72
30 -27 13 -57 21 -68 18 -12 -3 -20 0 -20 6 0 7 -4 10 -10 6 -5 -3 -18 0 -30
7 -21 14 -27 28 -10 28 6 0 10 -4 10 -10z m-514 -21 c98 -17 268 -60 279 -70
12 -12 -8 -12 -171 6 -172 18 -236 37 -220 64 9 14 36 14 112 0z m-637 -18
c10 -17 6 -19 -42 -23 -28 -2 -64 -1 -78 3 -19 5 -31 2 -41 -10 -12 -14 -44
-20 -154 -29 -77 -6 -159 -18 -184 -27 -25 -9 -91 -19 -147 -22 -91 -5 -103
-4 -103 10 0 16 50 50 80 53 8 1 58 12 110 24 92 22 252 35 452 38 86 2 98 0
107 -17z m2229 -18 c10 -10 37 -33 60 -52 39 -32 51 -58 35 -74 -12 -13 -133
110 -133 136 0 13 19 8 38 -10z m-47 -90 c38 -48 48 -83 24 -83 -12 0 -55 75
-55 96 0 10 18 2 31 -13z m390 -44 c17 -35 18 -45 9 -75 -8 -22 -8 -39 -2 -47
16 -21 21 -59 11 -80 -11 -18 -11 -18 -26 2 -10 16 -13 38 -10 78 4 46 0 64
-19 101 -13 25 -24 53 -24 64 0 30 36 4 61 -43z m-2426 11 c17 -4 43 -11 58
-14 38 -9 24 -26 -21 -26 -20 0 -48 -3 -61 -7 -22 -6 -22 -6 9 -19 18 -8 60
-14 94 -14 74 0 227 -24 258 -41 31 -16 65 -53 61 -66 -2 -6 8 -25 22 -42 l27
-31 -35 0 c-20 0 -46 9 -61 21 -16 13 -33 18 -46 14 -10 -3 -28 -1 -40 5 -15
8 -20 8 -18 -2 5 -23 33 -47 82 -67 40 -18 46 -24 36 -36 -13 -16 -17 -15
-140 45 -133 64 -135 65 -134 82 1 10 -5 14 -17 11 -25 -7 -35 -23 -15 -23 11
0 15 -7 12 -22 -3 -22 -7 -23 -107 -24 -189 -2 -196 -7 -19 -14 171 -7 177 -8
245 -40 129 -60 113 -70 -110 -66 -141 3 -187 8 -270 29 -55 14 -122 29 -150
33 -27 3 -58 11 -67 16 -12 5 -26 4 -40 -3 -19 -10 -20 -13 -6 -23 8 -6 42
-17 74 -23 56 -11 176 -36 254 -53 19 -4 30 -8 24 -9 -6 0 -9 -14 -6 -29 3
-26 0 -29 -36 -40 -22 -7 -51 -12 -66 -12 -16 0 -26 -5 -26 -15 0 -13 -18 -14
-128 -9 -70 3 -139 1 -152 -4 -32 -11 -120 -3 -120 10 0 6 8 16 17 23 14 11
12 14 -21 25 -32 10 -42 9 -83 -10 -37 -17 -51 -20 -70 -11 -13 6 -36 11 -51
11 -62 1 -67 33 -7 44 19 4 35 11 35 16 0 6 7 10 15 10 8 0 15 5 15 10 0 13
46 13 71 -1 26 -13 131 -1 126 15 -2 6 -19 16 -37 22 -44 15 -49 33 -12 40 37
8 49 40 20 55 -15 8 -17 13 -7 25 9 11 9 14 -1 14 -10 0 -10 3 0 15 7 8 23 15
37 15 14 0 21 4 18 10 -4 6 9 10 31 10 20 0 66 13 101 30 34 17 71 30 81 30 9
0 24 5 32 10 12 8 12 10 -5 10 -15 0 -16 3 -7 9 10 6 5 11 -17 21 -58 24 -36
35 59 32 25 -1 77 6 115 16 79 20 136 24 180 12z m248 -25 c63 -23 107 -51
107 -67 0 -8 -58 8 -73 21 -7 5 -45 17 -84 27 -59 14 -71 20 -62 31 16 19 38
16 112 -12z m839 -1 c22 -11 33 -13 38 -4 12 19 220 -22 220 -43 0 -5 5 -5 10
-2 17 11 142 -65 192 -117 25 -26 49 -60 52 -75 4 -16 24 -46 45 -68 21 -22
54 -71 74 -109 43 -80 39 -96 -20 -87 -31 5 -39 11 -42 31 -1 14 -6 27 -11 30
-9 6 -50 81 -50 92 0 8 -45 113 -59 138 -5 8 -17 14 -27 13 -39 -5 -127 29
-189 72 -75 51 -101 64 -207 101 -43 14 -78 31 -78 35 0 13 17 11 52 -7z m394
-16 c45 -25 94 -62 94 -72 0 -11 -16 -6 -36 12 -10 9 -43 28 -72 42 -29 13
-56 28 -58 32 -10 16 32 7 72 -14z m-1931 -8 c-3 -5 -37 -10 -75 -10 -38 0
-72 5 -75 10 -4 6 23 10 75 10 52 0 79 -4 75 -10z m-255 -30 c0 -5 -7 -10 -15
-10 -8 0 -15 5 -15 10 0 6 7 10 15 10 8 0 15 -4 15 -10z m1148 -44 c31 -16 58
-44 50 -51 -7 -8 -69 20 -100 45 -54 42 -26 45 50 6z m705 9 c30 -14 60 -32
66 -39 21 -25 -6 -28 -53 -6 -25 11 -49 20 -53 20 -4 0 -21 11 -38 25 l-30 24
26 1 c15 0 51 -11 82 -25z m754 -67 c57 -62 63 -77 63 -160 0 -68 -2 -78 -18
-78 -29 0 -60 28 -72 66 -10 30 -10 39 3 51 17 17 8 57 -17 77 -14 11 -11 76
3 76 4 0 21 -15 38 -32z m-2987 -87 c0 -9 -71 -41 -90 -41 -17 0 -11 38 8 43
31 8 82 7 82 -2z m1935 -61 c4 -7 -3 -8 -22 -4 -27 7 -43 20 -43 37 0 10 56
-19 65 -33z m1865 20 c0 -11 0 -23 1 -27 0 -4 -4 -9 -10 -11 -6 -2 -11 10 -11
27 0 17 5 31 10 31 6 0 10 -9 10 -20z m-520 -60 c0 -11 -4 -20 -9 -20 -5 0
-11 9 -14 20 -3 13 0 20 9 20 8 0 14 -9 14 -20z m-3320 -30 c0 -5 -7 -10 -15
-10 -8 0 -15 5 -15 10 0 6 7 10 15 10 8 0 15 -4 15 -10z m2028 -15 c83 -39 89
-50 28 -53 -43 -2 -60 3 -99 28 -81 51 -26 70 71 25z m574 -32 c17 -15 25 -43
12 -43 -18 0 -44 24 -44 40 0 24 8 25 32 3z m-144 -21 c13 -8 27 -23 33 -33 9
-17 6 -19 -24 -19 -18 0 -56 11 -83 25 -27 14 -57 25 -66 25 -21 0 -24 16 -5
23 22 9 121 -6 145 -21z m-675 12 c9 -3 13 -13 10 -25 -6 -23 1 -26 90 -34 99
-10 86 -29 -15 -23 -63 4 -100 13 -153 36 -38 16 -71 35 -73 41 -4 12 113 16
141 5z m102 -4 c-3 -5 -12 -7 -20 -3 -21 7 -19 13 6 13 11 0 18 -4 14 -10z
m1137 -37 c31 -30 38 -44 38 -76 l0 -40 -42 7 c-22 4 -45 9 -50 12 -13 8 -10
134 4 134 7 0 29 -17 50 -37z m-1512 -23 c0 -5 -9 -10 -20 -10 -11 0 -20 5
-20 10 0 6 9 10 20 10 11 0 20 -4 20 -10z m5 -41 c55 -6 152 -17 215 -26 63
-8 176 -16 250 -19 207 -5 325 -23 525 -80 50 -13 117 -29 150 -35 109 -19
229 -38 275 -44 49 -7 112 -26 120 -36 3 -4 27 -17 53 -29 26 -13 76 -50 110
-84 69 -68 162 -201 172 -246 4 -17 10 -30 14 -30 4 0 36 -57 70 -127 84 -170
108 -228 120 -298 4 -22 12 -49 17 -60 37 -73 44 -88 44 -102 0 -8 6 -27 14
-41 24 -48 76 -188 76 -208 1 -10 7 -30 15 -44 8 -14 14 -39 15 -56 0 -17 7
-37 15 -44 8 -7 15 -24 15 -39 0 -14 9 -48 19 -76 11 -27 25 -70 31 -95 6 -25
19 -59 27 -77 29 -60 4 -65 -132 -27 -87 24 -154 36 -300 53 -105 12 -974 13
-1095 1 -58 -5 -136 -17 -175 -26 -38 -8 -89 -19 -113 -25 -23 -5 -140 -9
-260 -9 -122 0 -234 -5 -255 -11 -36 -10 -40 -9 -73 23 -19 18 -44 55 -56 81
-28 63 -46 72 -238 122 -208 54 -205 54 -788 54 -470 1 -549 -1 -569 -14 -13
-9 -23 -21 -23 -29 0 -19 28 -72 45 -86 8 -7 15 -18 15 -25 0 -17 -83 -47
-117 -43 l-28 3 -3 129 c-2 114 0 133 18 169 25 48 39 131 49 292 4 66 13 134
20 150 7 17 21 66 31 110 63 274 104 384 201 540 65 104 89 130 144 158 80 40
193 77 233 77 78 0 204 29 238 55 18 14 38 25 45 25 6 0 35 13 63 29 40 22 73
31 151 40 230 26 317 42 435 81 36 12 63 11 175 -1z m991 -33 c38 -8 96 -20
129 -26 82 -16 95 -20 95 -31 0 -12 -65 -11 -110 1 -19 5 -57 14 -85 20 -83
19 -125 33 -125 42 0 11 17 10 96 -6z m674 -31 c7 -8 21 -15 31 -15 22 0 35
-18 22 -31 -13 -13 -77 22 -81 44 -4 21 11 22 28 2z m-3230 -7 c-1 -16 -26
-46 -64 -76 -34 -26 -42 -27 -50 -7 -6 16 21 46 69 76 35 22 45 24 45 7z
m4100 -8 c0 -11 -4 -20 -10 -20 -5 0 -10 9 -10 20 0 11 5 20 10 20 6 0 10 -9
10 -20z m-4230 0 c0 -5 -4 -10 -10 -10 -5 0 -10 5 -10 10 0 6 5 10 10 10 6 0
10 -4 10 -10z m4074 -6 c8 -21 -3 -56 -15 -49 -12 8 -12 65 0 65 5 0 12 -7 15
-16z m200 -58 c18 -37 34 -47 64 -39 25 6 31 -4 37 -64 11 -126 17 -154 31
-149 9 3 17 -7 23 -32 13 -47 5 -490 -9 -527 -5 -14 -10 -49 -10 -76 0 -27 -5
-49 -10 -49 -7 0 -8 80 -4 240 7 236 7 241 -14 260 -20 19 -21 19 -27 1 -5
-16 -17 -285 -16 -356 0 -10 -5 -26 -12 -34 -7 -7 -16 -32 -22 -54 -5 -22 -15
-42 -21 -44 -9 -3 -10 45 -7 182 l6 185 -24 1 c-13 1 -27 1 -31 0 -5 0 -8 3
-8 9 0 6 -9 10 -19 10 -27 0 -34 -30 -33 -127 0 -52 -4 -87 -12 -99 -12 -16
-15 -9 -26 57 -17 110 -41 208 -51 215 -5 3 -10 -21 -10 -53 -1 -32 -2 -84 -3
-115 -2 -60 -10 -78 -27 -61 -14 14 -31 417 -19 421 6 2 10 12 10 22 0 12 12
22 35 30 l35 12 0 74 c0 43 4 74 10 74 6 0 10 -12 10 -27 0 -16 5 -35 10 -43
9 -13 12 -12 25 4 8 11 15 35 15 53 0 47 15 41 35 -15 10 -27 27 -55 38 -61
19 -12 20 -11 13 25 -3 22 -9 72 -13 112 -7 80 4 94 31 38z m-458 -7 c10 -17
-13 -36 -27 -22 -12 12 -4 33 11 33 5 0 12 -5 16 -11z m142 -45 c-4 -35 -28
-45 -28 -11 0 14 3 33 6 42 10 25 26 2 22 -31z m269 24 c-3 -8 -6 -5 -6 6 -1
11 2 17 5 13 3 -3 4 -12 1 -19z m-4323 -6 c3 -5 2 -19 -1 -31 -4 -17 -8 -19
-14 -9 -12 18 -11 48 0 48 6 0 12 -4 15 -8z m639 -12 c15 0 27 -4 27 -10 0 -5
-12 -12 -27 -16 -16 -3 -58 -16 -96 -29 -81 -28 -96 -17 -42 33 32 30 42 33
74 28 20 -3 48 -6 64 -6z m77 1 c0 -6 -4 -13 -10 -16 -5 -3 -10 1 -10 9 0 9 5
16 10 16 6 0 10 -4 10 -9z m-640 -28 c-1 -14 -27 -43 -39 -43 -6 0 -14 -7 -17
-15 -5 -12 -10 -13 -20 -4 -11 9 -14 9 -14 0 0 -7 -4 -9 -10 -6 -5 3 -10 15
-10 26 0 13 7 19 23 19 13 0 32 7 43 15 20 15 44 20 44 8z m3990 -340 c-6
-139 -5 -218 3 -233 4 -8 2 -22 -3 -30 -9 -13 -12 -12 -25 4 -19 25 -21 258
-3 318 17 59 31 31 28 -59z m590 -87 c0 -3 -4 -8 -10 -11 -5 -3 -10 -1 -10 4
0 6 5 11 10 11 6 0 10 -2 10 -4z m14 -112 c10 -77 8 -130 -6 -116 -13 13 -21
162 -9 162 5 0 11 -21 15 -46z m-14 -293 c0 -34 -12 -81 -21 -81 -5 0 -9 23
-9 50 0 38 4 50 15 50 8 0 15 -8 15 -19z m-78 -38 c8 -64 -2 -113 -23 -113
-22 0 -23 15 -8 93 14 66 25 73 31 20z m-4640 -24 c-2 -17 -8 -27 -13 -22 -9
9 -1 53 10 53 4 0 6 -14 3 -31z m4251 -11 c4 -18 9 -81 13 -140 7 -106 7 -107
33 -110 20 -2 27 -9 29 -32 4 -36 -5 -76 -18 -76 -14 0 -40 55 -40 84 0 14 -4
28 -10 31 -5 3 -10 24 -10 45 0 21 -11 70 -25 109 -28 76 -26 121 5 121 12 0
20 -10 23 -32z m334 -190 c-22 -139 -28 -172 -37 -188 -6 -10 -10 -28 -10 -39
0 -25 -31 -91 -42 -91 -22 0 -6 111 34 227 40 117 66 160 55 91z m-130 -324
c-3 -3 -12 -4 -19 -1 -8 3 -5 6 6 6 11 1 17 -2 13 -5z m-3247 -189 c41 -8 120
-22 175 -30 149 -24 244 -47 256 -62 8 -9 8 -21 0 -40 -15 -39 -31 -147 -31
-213 0 -31 -4 -60 -9 -65 -6 -6 -17 -44 -25 -85 -21 -99 -82 -223 -139 -280
-25 -25 -72 -59 -104 -75 l-58 -30 -253 -4 c-189 -2 -261 0 -285 10 -27 11
-111 63 -127 79 -3 3 -30 24 -61 48 -41 31 -63 56 -78 92 -12 27 -21 52 -21
55 0 4 -6 21 -14 38 -7 18 -18 44 -24 59 -6 15 -23 100 -37 190 -14 90 -32
187 -40 216 -14 53 -13 54 10 78 24 24 26 24 242 25 120 1 232 5 248 10 43 12
287 2 375 -16z m-1306 -44 c20 -22 20 -28 10 -146 -5 -60 -2 -97 10 -145 14
-55 17 -108 14 -337 l-3 -273 -23 0 c-18 0 -27 11 -43 48 -31 71 -80 240 -89
302 -4 30 -13 82 -20 115 -7 33 -13 132 -14 220 -1 171 -3 163 52 221 20 21
86 18 106 -5z m351 -71 c3 -5 13 -49 21 -97 17 -98 26 -131 59 -218 13 -33 27
-82 30 -110 6 -43 65 -170 86 -185 3 -3 13 -19 22 -36 22 -43 75 -92 129 -120
91 -46 145 -54 388 -54 255 0 283 5 391 71 77 46 127 93 169 159 47 73 130
347 130 428 0 16 3 31 6 34 11 12 41 -5 57 -32 32 -54 13 -412 -27 -515 -8
-22 -15 -51 -16 -65 0 -14 -7 -35 -15 -48 -21 -30 -85 -159 -85 -172 0 -17 22
-11 49 14 14 14 37 35 51 48 33 30 78 131 86 193 4 28 14 64 23 80 13 25 17
73 19 278 l4 248 26 17 c23 15 55 17 284 15 228 -1 262 -3 295 -20 36 -17 38
-21 40 -68 11 -237 37 -413 72 -485 64 -129 150 -257 218 -324 16 -16 70 -45
119 -64 l89 -35 246 -5 c243 -4 248 -4 322 21 41 14 92 34 113 45 48 25 154
143 172 191 7 20 20 56 28 81 9 25 24 61 34 80 10 19 25 60 34 90 8 30 27 96
41 145 21 76 48 130 102 204 2 3 43 5 91 5 107 1 118 -7 127 -96 18 -174 -12
-730 -44 -811 -6 -16 -11 -43 -11 -61 0 -18 -9 -66 -19 -108 -11 -41 -22 -127
-25 -194 -8 -172 -16 -253 -31 -304 -7 -25 -18 -67 -23 -95 -18 -88 -41 -158
-87 -261 -15 -32 -37 -80 -48 -106 -12 -27 -25 -48 -29 -48 -3 0 -9 -13 -13
-29 -3 -17 -27 -65 -53 -108 -26 -44 -58 -101 -72 -127 -45 -86 -135 -169
-334 -311 -72 -51 -171 -127 -176 -135 -9 -14 -165 -115 -208 -134 -23 -10
-42 -25 -42 -32 0 -13 -36 -40 -179 -134 -37 -25 -103 -69 -146 -97 -42 -29
-82 -53 -88 -53 -6 0 -20 -9 -31 -19 -12 -11 -61 -41 -111 -69 -148 -81 -240
-134 -245 -143 -8 -12 -206 -94 -286 -119 -55 -17 -93 -20 -228 -20 -88 0
-177 5 -196 10 -128 33 -235 72 -250 91 -3 4 -33 23 -68 44 -42 24 -111 85
-205 180 -78 79 -148 150 -156 157 -100 97 -135 136 -155 176 -13 26 -44 72
-68 102 -45 55 -103 151 -152 247 -14 28 -36 105 -49 170 -19 90 -36 144 -75
225 -76 159 -98 215 -122 308 -12 46 -36 115 -55 154 -22 48 -38 103 -49 171
-8 55 -26 150 -40 210 -15 66 -32 190 -42 310 -9 110 -20 241 -25 290 -15 157
-23 605 -10 605 7 0 11 34 12 98 1 53 4 129 8 167 l6 70 80 22 c94 25 102 26
110 13z m2282 -16 c-3 -3 -12 -4 -19 -1 -8 3 -5 6 6 6 11 1 17 -2 13 -5z m948
-35 c203 -14 302 -27 341 -45 22 -10 41 -20 44 -23 3 -4 23 -15 45 -27 38 -20
40 -23 39 -66 -2 -46 -55 -233 -79 -278 -7 -14 -24 -65 -38 -115 -25 -89 -74
-206 -99 -235 -35 -40 -142 -123 -180 -140 -80 -35 -320 -51 -528 -36 -77 6
-106 13 -155 37 -76 39 -122 82 -147 139 -10 24 -35 70 -54 101 -18 31 -34 64
-34 73 0 9 -4 24 -9 34 -38 71 -62 217 -68 410 l-5 152 34 15 c27 11 103 14
408 13 206 -1 425 -4 485 -9z m1190 -280 c69 -61 70 -64 73 -364 2 -148 1
-289 -3 -313 -6 -38 -21 -57 -158 -195 -170 -170 -215 -207 -255 -210 l-27 -2
3 75 c1 41 7 113 12 160 5 47 12 121 14 165 3 44 12 130 20 190 9 61 18 130
22 155 3 25 10 54 14 65 5 11 19 49 31 85 11 36 27 69 35 73 8 4 14 20 14 35
0 30 16 52 37 52 21 0 54 -128 60 -238 6 -100 18 -133 43 -117 12 7 13 182 1
240 -5 22 -19 63 -32 92 -19 43 -20 54 -10 67 22 26 67 19 106 -15z m-1025
-2616 c1 -5 2 -165 3 -358 2 -338 3 -355 31 -505 15 -85 41 -204 58 -265 16
-60 33 -128 39 -149 5 -22 25 -57 44 -78 37 -41 45 -81 23 -121 -33 -63 -149
-191 -297 -327 -51 -47 -185 -140 -218 -151 -21 -7 -51 -20 -68 -29 -42 -23
-334 -115 -430 -135 -44 -10 -107 -24 -140 -31 -85 -20 -145 -30 -350 -58
-329 -46 -388 -51 -595 -50 -220 0 -348 18 -454 63 -26 12 -51 21 -56 21 -5 0
-37 13 -72 28 -35 16 -85 37 -113 47 -68 25 -147 69 -224 124 -75 53 -251 222
-251 240 0 11 37 63 86 121 14 17 25 51 32 101 8 53 23 99 52 155 22 43 48
104 56 134 9 30 22 73 30 95 12 35 23 138 41 418 5 84 14 93 51 55 11 -13 44
-41 73 -63 28 -22 62 -49 74 -60 36 -33 343 -190 435 -223 36 -13 94 -22 170
-26 174 -10 301 21 480 116 41 22 80 43 85 47 6 4 35 18 65 30 30 13 71 30 90
38 19 8 71 31 115 53 44 21 105 50 135 64 117 55 251 151 375 267 28 26 95 70
150 99 55 28 116 67 135 87 19 19 71 59 115 88 44 30 104 74 133 99 48 41 91
59 92 39z"/>
<path d="M4393 9524 c10 -10 107 -13 107 -3 0 5 -25 9 -57 9 -31 0 -54 -3 -50
-6z"/>
<path d="M4526 9522 c-2 -4 13 -6 35 -4 21 2 39 6 39 8 0 7 -69 4 -74 -4z"/>
<path d="M4719 9515 c-3 -2 -71 -7 -151 -10 -80 -3 -158 -9 -174 -14 -39 -10
202 -3 306 9 58 7 96 7 120 0 19 -5 57 -11 85 -11 48 -2 48 -2 15 -9 l-35 -7
40 -1 c22 0 60 3 85 7 42 6 38 8 -50 15 -68 7 -88 11 -70 16 16 5 -11 8 -71 9
-53 1 -98 -1 -100 -4z"/>
<path d="M4195 9500 c-59 -7 -59 -7 25 -8 55 0 78 2 65 8 -11 5 -22 8 -25 8
-3 -1 -32 -4 -65 -8z"/>
<path d="M4070 9480 c36 -12 62 -12 55 0 -3 6 -23 10 -43 9 -33 -1 -34 -2 -12
-9z"/>
<path d="M4729 9477 c4 -4 32 -3 62 2 l54 9 -62 -1 c-34 -1 -59 -5 -54 -10z"/>
<path d="M4178 9473 c7 -3 16 -2 19 1 4 3 -2 6 -13 5 -11 0 -14 -3 -6 -6z"/>
<path d="M5068 9473 c7 -3 16 -2 19 1 4 3 -2 6 -13 5 -11 0 -14 -3 -6 -6z"/>
<path d="M5114 9468 c-9 -15 -5 -16 91 -21 50 -3 79 -3 65 0 -14 2 -53 11 -88
18 -38 8 -65 9 -68 3z"/>
<path d="M4795 9460 c28 -12 47 -12 40 0 -3 6 -18 10 -33 9 -24 0 -25 -1 -7
-9z"/>
<path d="M5018 9463 c7 -3 16 -2 19 1 4 3 -2 6 -13 5 -11 0 -14 -3 -6 -6z"/>
<path d="M4805 9426 c58 -13 59 -13 27 -21 -32 -8 -45 -19 -48 -42 -2 -9 12
-13 39 -13 31 0 38 -3 27 -10 -11 -8 -7 -10 17 -8 17 1 29 6 27 10 -3 4 17 6
44 4 55 -5 107 18 81 35 -11 7 -9 9 6 9 11 1 1 8 -23 16 -30 11 -47 12 -56 5
-13 -11 -57 -4 -67 11 -3 4 -34 10 -70 13 l-64 5 60 -14z"/>
<path d="M4963 9433 c9 -2 23 -2 30 0 6 3 -1 5 -18 5 -16 0 -22 -2 -12 -5z"/>
<path d="M5040 9420 l-35 -7 35 -1 c19 0 44 3 55 8 l20 9 -20 -1 c-11 0 -36
-4 -55 -8z"/>
<path d="M4468 9413 c12 -2 30 -2 40 0 9 3 -1 5 -23 4 -22 0 -30 -2 -17 -4z"/>
<path d="M5158 9413 c7 -3 16 -2 19 1 4 3 -2 6 -13 5 -11 0 -14 -3 -6 -6z"/>
<path d="M5195 9400 c-19 -8 -19 -9 3 -9 12 -1 22 4 22 9 0 6 -1 10 -2 9 -2 0
-12 -4 -23 -9z"/>
<path d="M5065 9369 c-12 -18 3 -22 20 -5 14 14 14 16 1 16 -8 0 -18 -5 -21
-11z"/>
<path d="M5630 9370 c0 -5 5 -10 10 -10 6 0 10 5 10 10 0 6 -4 10 -10 10 -5 0
-10 -4 -10 -10z"/>
<path d="M5095 9350 c3 -5 11 -10 16 -10 6 0 7 5 4 10 -3 6 -11 10 -16 10 -6
0 -7 -4 -4 -10z"/>
<path d="M4995 9320 c3 -5 10 -10 16 -10 5 0 9 5 9 10 0 6 -7 10 -16 10 -8 0
-12 -4 -9 -10z"/>
<path d="M5213 9323 c9 -2 23 -2 30 0 6 3 -1 5 -18 5 -16 0 -22 -2 -12 -5z"/>
<path d="M5032 9311 c2 -8 -8 -17 -22 -22 -20 -6 -21 -7 -5 -8 11 0 27 4 35 9
12 8 13 11 2 22 -11 11 -13 10 -10 -1z"/>
<path d="M4143 9303 c26 -2 67 -2 90 0 23 2 2 3 -48 3 -49 0 -68 -1 -42 -3z"/>
<path d="M4898 9293 c7 -3 16 -2 19 1 4 3 -2 6 -13 5 -11 0 -14 -3 -6 -6z"/>
<path d="M5375 9290 c4 -6 11 -8 16 -5 14 9 11 15 -7 15 -8 0 -12 -5 -9 -10z"/>
<path d="M4750 9280 c0 -5 5 -10 10 -10 6 0 10 5 10 10 0 6 -4 10 -10 10 -5 0
-10 -4 -10 -10z"/>
<path d="M5127 9284 c-8 -8 1 -24 14 -24 5 0 9 7 9 15 0 15 -12 20 -23 9z"/>
<path d="M6025 9201 c-3 -5 -1 -12 5 -16 5 -3 10 1 10 9 0 18 -6 21 -15 7z"/>
<path d="M4415 8900 c3 -5 8 -10 11 -10 2 0 4 5 4 10 0 6 -5 10 -11 10 -5 0
-7 -4 -4 -10z"/>
<path d="M4260 8860 c0 -5 5 -10 10 -10 6 0 10 5 10 10 0 6 -4 10 -10 10 -5 0
-10 -4 -10 -10z"/>
<path d="M4188 8823 c7 -3 16 -2 19 1 4 3 -2 6 -13 5 -11 0 -14 -3 -6 -6z"/>
<path d="M4373 8773 c9 -2 23 -2 30 0 6 3 -1 5 -18 5 -16 0 -22 -2 -12 -5z"/>
<path d="M4598 8773 c7 -3 16 -2 19 1 4 3 -2 6 -13 5 -11 0 -14 -3 -6 -6z"/>
<path d="M4068 8763 c7 -3 16 -2 19 1 4 3 -2 6 -13 5 -11 0 -14 -3 -6 -6z"/>
<path d="M4063 8703 c9 -2 23 -2 30 0 6 3 -1 5 -18 5 -16 0 -22 -2 -12 -5z"/>
<path d="M3970 8660 c0 -6 7 -13 15 -17 24 -9 27 1 5 15 -13 8 -20 8 -20 2z"/>
<path d="M3778 7110 c-56 -10 -187 -92 -226 -142 -11 -14 -11 -21 3 -42 l17
-26 167 0 166 0 90 -39 c50 -22 117 -42 150 -46 33 -4 78 -13 100 -20 82 -27
243 -45 403 -45 183 0 182 -1 182 84 0 26 5 55 11 65 10 15 5 24 -34 61 -26
23 -68 56 -94 73 -43 29 -58 32 -153 38 -58 4 -130 11 -160 17 -145 29 -505
41 -622 22z m956 -146 c4 -9 4 -19 1 -22 -8 -8 -55 16 -55 28 0 17 47 11 54
-6z m-686 -53 c49 -32 42 -49 -12 -31 -39 12 -61 34 -51 50 9 15 15 13 63 -19z
m732 -36 c0 -11 -12 -15 -50 -15 -79 0 -60 25 23 29 18 1 27 -4 27 -14z m-572
-27 c-6 -18 -25 -20 -31 -3 -5 10 0 15 14 15 12 0 19 -5 17 -12z m580 -45 c5
-18 -287 -16 -388 2 -72 12 -65 13 154 12 174 -2 230 -5 234 -14z"/>
<path d="M5680 6925 l-45 -30 -3 -75 c-4 -97 17 -156 62 -175 48 -20 1086 -34
1121 -15 28 15 32 32 12 52 -21 21 -29 88 -11 95 7 3 14 11 14 17 0 19 -127
73 -200 86 -36 6 -78 15 -95 20 -144 42 -219 50 -515 53 l-295 2 -45 -30z
m554 -14 c8 -13 -20 -21 -91 -28 -65 -6 -67 -5 -57 21 5 12 21 16 74 16 38 0
71 -4 74 -9z m168 -28 c18 -10 35 -19 38 -21 2 -2 -1 -7 -8 -11 -10 -6 -96 5
-110 14 -1 1 0 10 4 19 8 21 34 20 76 -1z m-502 -3 c0 -13 -45 -24 -66 -16 -8
3 -12 10 -9 16 8 13 75 13 75 0z m416 -197 c17 -17 16 -18 -12 -21 -16 -2 -67
0 -114 4 l-85 8 85 11 c47 7 90 13 97 13 6 1 19 -6 29 -15z m249 7 c3 -5 48
-10 98 -10 51 0 99 -5 107 -10 10 -6 -58 -9 -200 -8 -118 0 -204 3 -191 5 13
3 31 11 38 19 17 16 138 20 148 4z m-636 -16 c2 -2 -45 -3 -105 -3 -75 1 -97
4 -69 9 37 6 165 2 174 -6z"/>
<path d="M7416 8051 c-4 -7 -5 -15 -2 -18 9 -9 19 4 14 18 -4 11 -6 11 -12 0z"/>
<path d="M7445 8000 c-3 -5 -1 -10 4 -10 6 0 11 5 11 10 0 6 -2 10 -4 10 -3 0
-8 -4 -11 -10z"/>
<path d="M7532 7990 c0 -14 2 -19 5 -12 2 6 2 18 0 25 -3 6 -5 1 -5 -13z"/>
<path d="M7411 7904 c0 -11 3 -14 6 -6 3 7 2 16 -1 19 -3 4 -6 -2 -5 -13z"/>
<path d="M7412 7830 c0 -19 2 -27 5 -17 2 9 2 25 0 35 -3 9 -5 1 -5 -18z"/>
<path d="M7453 7823 c-8 -3 -13 -22 -13 -46 0 -28 3 -37 9 -28 5 7 6 21 4 31
-3 12 2 20 16 25 12 3 21 11 21 16 0 10 -17 11 -37 2z"/>
<path d="M4177 6493 c-3 -3 -64 -4 -134 -4 -99 2 -137 -2 -168 -14 -21 -10
-48 -19 -59 -21 -11 -2 -23 -10 -28 -17 -4 -8 -25 -26 -48 -42 -22 -15 -40
-33 -40 -40 0 -23 139 -85 225 -100 125 -22 286 -30 313 -16 11 6 23 7 26 3 6
-10 97 -9 114 1 7 5 12 30 12 63 0 74 -28 116 -100 148 -80 36 -107 45 -113
39z m26 -62 c14 -14 -3 -59 -25 -64 -41 -11 -76 32 -56 68 8 13 18 16 41 11
17 -4 35 -10 40 -15z m-252 0 c-16 -10 -21 -95 -7 -123 7 -15 3 -18 -18 -18
-14 0 -34 4 -44 9 -9 5 -39 14 -67 20 -27 7 -53 16 -58 20 -9 9 160 99 188
100 15 1 17 -1 6 -8z m356 -75 c18 -26 33 -57 33 -68 0 -19 -4 -20 -56 -15
-31 3 -59 8 -62 11 -3 3 0 17 6 31 7 14 12 42 12 61 0 49 24 42 67 -20z"/>
<path d="M4480 5340 c-32 -30 -33 -32 -27 -100 7 -81 20 -110 49 -110 17 0 19
4 13 28 -4 15 -9 50 -12 77 -4 42 0 56 21 88 31 45 31 47 7 47 -10 0 -34 -14
-51 -30z"/>
<path d="M5344 5183 c21 -115 20 -133 -10 -164 -40 -41 -117 -67 -246 -80 -81
-9 -126 -19 -158 -36 -25 -13 -59 -23 -77 -23 -29 0 -32 3 -35 33 -3 32 -4 32
-55 32 -40 0 -57 5 -75 23 -14 12 -29 22 -36 22 -6 0 -27 14 -47 31 -20 18
-38 29 -41 26 -3 -3 6 -25 20 -50 14 -24 26 -51 26 -59 0 -20 62 -83 114 -116
35 -22 48 -24 110 -20 53 4 87 13 131 35 48 24 83 33 174 43 111 12 215 38
256 65 25 15 51 129 40 172 -11 46 -53 103 -76 103 -19 0 -20 -4 -15 -37z"/>
<path d="M4133 4750 c-34 -14 -31 -79 7 -174 17 -42 32 -94 34 -115 2 -22 17
-61 33 -88 17 -26 53 -94 81 -150 64 -129 122 -207 231 -307 118 -109 117
-109 426 -102 177 4 263 9 295 20 25 7 72 22 105 31 33 10 75 29 93 42 67 50
171 160 191 203 12 25 43 74 71 110 27 36 49 70 50 77 0 6 6 18 13 25 50 52
87 109 87 132 0 27 -1 28 -47 23 -59 -6 -128 -23 -170 -42 -17 -8 -37 -15 -45
-15 -7 0 -51 -14 -98 -30 -83 -30 -86 -30 -295 -30 -180 0 -221 3 -290 21 -44
12 -99 25 -122 30 -24 4 -56 15 -72 24 -17 8 -35 15 -42 15 -25 0 -256 123
-320 171 -36 27 -70 49 -75 49 -5 0 -31 21 -57 45 -52 48 -51 48 -84 35z m364
-321 c313 -123 436 -149 711 -149 169 0 183 -1 202 -20 11 -11 20 -24 20 -28
0 -29 -110 -87 -192 -103 -35 -6 -72 -15 -83 -20 -11 -4 -29 -9 -39 -11 -11
-2 -21 -9 -24 -15 -3 -10 17 -13 77 -13 64 0 81 -3 81 -14 0 -8 10 -16 22 -18
13 -2 24 -10 26 -19 4 -23 -106 -65 -220 -84 -54 -9 -158 -15 -249 -15 l-157
0 -71 67 c-62 56 -71 70 -66 91 4 17 -1 33 -18 55 -13 18 -27 43 -32 57 -4 14
-24 57 -45 95 -45 85 -55 120 -38 140 16 17 56 19 95 4z"/>
<path d="M3638 4719 c-23 -13 -23 -65 -2 -156 20 -86 29 -98 55 -72 18 18 18
21 4 43 -13 19 -15 38 -9 85 11 96 -4 126 -48 100z"/>
<path d="M6297 4504 c-3 -4 0 -16 8 -28 25 -35 20 -153 -10 -212 -47 -92 -25
-102 43 -20 7 9 24 38 38 66 19 39 23 54 14 69 -5 11 -10 35 -10 55 0 25 -7
40 -26 55 -27 21 -46 26 -57 15z"/>
<path d="M5805 6353 c-109 -26 -125 -37 -125 -86 0 -17 -7 -51 -17 -75 -15
-40 -15 -44 1 -60 15 -15 45 -17 269 -17 210 1 264 4 321 19 88 23 114 40 121
80 6 28 1 38 -45 87 l-52 54 -227 2 c-124 0 -235 -1 -246 -4z m260 -39 c53
-34 11 -114 -44 -85 -27 15 -30 75 -3 90 22 13 19 14 47 -5z m180 -35 c34 -10
85 -53 85 -72 0 -22 -54 -39 -140 -45 -79 -4 -83 -4 -67 12 19 20 23 76 6 93
-30 30 36 36 116 12z m-395 -2 c0 -2 -7 -17 -15 -33 -14 -29 -11 -74 6 -74 5
0 9 -4 9 -10 0 -6 -35 -10 -85 -10 -47 0 -85 2 -85 4 0 11 67 74 104 98 36 24
66 35 66 25z"/>
<path d="M4662 2385 c-32 -69 4 -210 70 -281 35 -37 76 -63 93 -59 6 2 22 6
38 9 25 6 37 30 19 38 -14 5 -72 97 -97 151 -13 29 -26 72 -30 97 -4 24 -15
50 -24 57 -27 21 -57 15 -69 -12z"/>
<path d="M7477 2283 c-4 -3 -7 -11 -7 -17 0 -6 5 -5 12 2 6 6 9 14 7 17 -3 3
-9 2 -12 -2z"/>
</g>
</svg>
